<?xml version="1.0" standalone="no"?>
<!DOCTYPE svg PUBLIC "-//W3C//DTD SVG 20010904//EN"
 "http://www.w3.org/TR/2001/REC-SVG-20010904/DTD/svg10.dtd">
<svg version="1.0" xmlns="http://www.w3.org/2000/svg"
 width="199.000000pt" height="199.000000pt" viewBox="0 0 199.000000 199.000000"
 preserveAspectRatio="xMidYMid meet">
<metadata>
Created by potrace 1.14, written by Peter Selinger 2001-2017
</metadata>
<g transform="translate(0.000000,199.000000) scale(0.100000,-0.100000)"
fill="#000000" stroke="none">
<path d="M832 1593 c-21 -8 -42 -59 -124 -302 -43 -129 -80 -236 -81 -238 -2
-1 -34 65 -72 148 -72 157 -92 181 -143 173 -61 -10 -89 -51 -76 -111 4 -21 8
-44 7 -50 0 -7 3 -10 8 -7 9 5 42 -66 34 -74 -2 -3 2 -10 11 -16 8 -6 16 -18
18 -26 2 -8 16 -42 31 -75 16 -32 28 -65 28 -72 0 -7 4 -13 9 -13 4 0 8 -4 8
-10 0 -5 13 -37 29 -69 16 -33 27 -61 25 -63 -10 -10 71 -50 105 -52 23 -2 39
0 36 2 -3 3 7 14 22 24 16 10 25 18 20 18 -4 0 -1 13 8 30 8 16 15 33 15 37 1
22 34 111 41 108 4 -3 5 5 1 17 -3 14 -1 19 6 14 7 -4 10 -2 7 6 -3 7 1 33 8
58 l13 45 5 -32 c3 -19 2 -30 -4 -26 -6 4 -7 1 -1 -8 5 -8 10 -27 11 -44 1
-16 4 -77 8 -135 3 -58 7 -126 9 -152 1 -26 8 -53 14 -61 9 -10 9 -17 -1 -27
-10 -10 -9 -11 3 -4 21 12 53 6 68 -14 12 -16 13 -15 10 2 -3 18 3 20 64 20
38 1 64 5 60 10 -3 5 2 6 12 3 9 -4 15 -3 12 2 -5 8 0 12 29 22 14 4 75 79 88
106 5 12 14 20 19 17 5 -3 8 -2 7 3 -4 22 3 50 16 67 13 17 17 18 28 6 10 -10
9 -11 -2 -5 -9 5 -12 4 -7 -3 4 -6 13 -9 21 -6 8 3 20 2 27 -3 13 -8 271 -13
263 -4 -3 2 0 10 7 18 7 9 12 68 12 171 2 187 1 193 -28 187 -11 -3 -53 -7
-92 -10 -84 -5 -101 -11 -116 -39 -18 -31 -18 -47 -3 -76 8 -15 11 -31 7 -34
-3 -4 1 -4 11 0 9 3 17 2 17 -3 0 -4 15 -8 33 -8 17 0 33 -4 34 -10 0 -5 -3
-9 -8 -8 -4 2 -6 -4 -3 -11 6 -16 -12 -23 -64 -25 -81 -3 -143 71 -138 165 4
70 35 132 59 117 5 -3 7 -1 3 5 -12 20 20 30 109 33 30 1 52 6 49 11 -3 4 0 8
6 8 6 0 8 5 4 12 -5 8 -2 9 9 5 10 -4 16 -2 14 6 -1 7 4 11 11 9 8 -1 11 2 8
7 -6 8 16 33 25 28 2 -1 3 0 1 2 -1 3 7 15 19 27 20 21 20 23 2 32 -10 5 -68
9 -129 8 -99 -2 -118 -6 -167 -29 -33 -17 -70 -46 -92 -73 l-37 -45 -22 19
c-36 33 -87 54 -138 57 -57 3 -66 9 -48 30 7 8 10 15 7 15 -4 0 0 17 7 38 26
72 -8 133 -73 131 -20 0 -42 -3 -49 -6z m226 -559 c14 -16 22 -35 19 -45 -3
-11 -1 -17 4 -13 14 8 11 -53 -5 -91 -8 -18 -23 -38 -34 -44 -26 -14 -69 -14
-77 0 -4 6 -9 56 -12 111 -4 74 -1 103 8 108 23 15 74 1 97 -26z"/>
<path d="M1395 1281 c-3 -5 -2 -12 3 -15 5 -3 9 1 9 9 0 17 -3 19 -12 6z"/>
<path d="M1350 1276 c0 -2 7 -7 16 -10 8 -3 12 -2 9 4 -6 10 -25 14 -25 6z"/>
<path d="M890 590 c0 -5 5 -10 11 -10 5 0 7 5 4 10 -3 6 -8 10 -11 10 -2 0 -4
-4 -4 -10z"/>
<path d="M980 596 c0 -2 8 -10 18 -17 15 -13 16 -12 3 4 -13 16 -21 21 -21 13z"/>
<path d="M440 548 c0 -2 -9 -28 -19 -58 l-18 -55 -17 39 c-9 21 -16 45 -16 52
0 8 -7 14 -16 14 -11 0 -13 -6 -8 -22 4 -13 8 -31 8 -40 0 -9 3 -15 7 -12 10
6 21 -45 13 -58 -4 -7 -3 -8 5 -4 6 4 19 2 28 -6 10 -8 14 -8 10 -1 -4 6 2 28
13 47 11 20 18 36 16 36 -3 0 -1 13 4 30 5 18 5 32 -1 35 -5 4 -9 5 -9 3z"/>
<path d="M879 546 c-1 -1 -2 -33 -3 -72 l-2 -70 47 0 c26 1 47 3 46 6 -1 3 6
16 17 30 15 21 17 22 12 4 -9 -30 34 -52 69 -36 35 16 32 34 -5 28 -16 -2 -30
0 -30 5 0 5 16 9 35 9 41 0 47 20 13 44 -30 21 -55 20 -70 -3 -11 -18 -13 -17
-27 13 -13 25 -23 32 -58 37 -24 3 -44 5 -44 5z m68 -48 c5 -7 8 -19 7 -25 -1
-7 -2 -17 -3 -23 0 -5 -10 -10 -21 -10 -16 0 -20 7 -20 35 0 36 18 47 37 23z
m108 -18 c3 -5 -1 -10 -10 -10 -9 0 -13 5 -10 10 3 6 8 10 10 10 2 0 7 -4 10
-10z"/>
<path d="M1126 518 c-21 -30 -20 -81 2 -101 12 -11 33 -16 65 -15 l47 2 -2 38
c-1 23 -6 37 -12 35 -6 -3 -19 0 -29 5 -22 11 -20 -11 3 -29 11 -9 12 -15 4
-23 -17 -18 -59 -8 -58 12 1 10 -2 15 -7 12 -5 -3 -9 -1 -9 5 0 5 4 12 10 16
5 3 7 12 4 20 -9 21 23 30 52 15 28 -16 42 -7 24 15 -19 23 -76 19 -94 -7z"/>
<path d="M479 493 c-13 -15 -11 -16 13 -10 15 4 29 3 32 -2 4 -5 -7 -12 -24
-16 -35 -8 -43 -18 -36 -43 4 -12 17 -17 46 -18 l40 0 0 43 c0 32 -5 45 -19
53 -27 14 -36 13 -52 -7z m41 -58 c-7 -8 -16 -15 -21 -15 -5 0 -9 7 -9 15 0 9
9 15 21 15 18 0 19 -2 9 -15z"/>
<path d="M575 496 c-16 -11 -17 -17 -7 -29 7 -8 24 -18 39 -22 26 -6 25 -17
-2 -21 -8 -1 -15 2 -15 7 0 5 -7 9 -15 9 -22 0 -18 -18 6 -31 16 -8 28 -8 45
0 35 16 28 42 -13 55 -26 8 -31 26 -8 26 8 0 15 -5 15 -12 0 -9 3 -9 12 0 13
13 11 17 -18 26 -11 3 -28 0 -39 -8z"/>
<path d="M670 495 c-17 -21 -20 -52 -6 -71 16 -21 56 -25 73 -8 17 17 16 24
-2 24 -8 0 -15 -4 -15 -10 0 -17 -29 -11 -39 9 -7 13 -6 23 3 36 11 15 16 16
35 5 26 -13 34 -10 22 9 -12 18 -58 22 -71 6z"/>
<path d="M776 497 c-23 -17 -24 -66 -1 -83 21 -16 56 -10 73 13 17 24 15 40
-8 63 -23 23 -39 25 -64 7z m53 -26 c8 -13 6 -23 -5 -37 -9 -11 -12 -12 -8 -4
7 13 5 13 -9 2 -14 -12 -17 -11 -23 12 -11 44 25 66 45 27z"/>
<path d="M1265 493 c-20 -19 -11 -31 10 -13 11 9 19 10 26 3 8 -8 7 -13 0 -17
-6 -4 -11 -5 -11 -1 0 3 -9 1 -20 -5 -12 -6 -20 -21 -20 -36 0 -23 3 -24 42
-22 30 2 42 8 44 21 8 56 -39 103 -71 70z m45 -53 c0 -13 -28 -25 -38 -16 -3
4 0 11 8 16 20 13 30 12 30 0z"/>
<path d="M1349 481 c0 -9 -1 -35 -2 -58 -2 -32 1 -39 11 -31 6 6 12 25 12 42
0 17 4 36 8 43 12 18 32 0 30 -27 -1 -39 1 -50 12 -50 6 0 10 18 10 39 0 25 5
41 15 44 19 8 22 0 21 -46 -1 -24 3 -37 12 -37 9 0 12 14 10 48 l-3 47 -67 1
c-56 1 -68 -1 -69 -15z"/>
<path d="M1512 493 c-6 -2 -10 -9 -6 -14 3 -5 12 -5 23 1 18 9 31 4 31 -12 0
-5 -4 -7 -8 -4 -19 11 -51 -24 -49 -53 1 -18 6 -26 12 -21 6 5 24 10 40 12 26
2 30 7 29 31 -2 66 -3 67 -31 66 -16 0 -34 -3 -41 -6z m48 -58 c0 -8 -9 -15
-20 -15 -25 0 -26 17 -2 23 9 3 18 5 20 6 1 0 2 -6 2 -14z"/>
<path d="M819 383 c-13 -16 -12 -17 4 -4 9 7 17 15 17 17 0 8 -8 3 -21 -13z"/>
</g>
</svg>
